# xmcd CD database file
#
# Track frame offsets:
#	150
#	16499
#	37847
#	59682
#	79601
#	98618
#	119297
#	139178
#	160802
#	183489
#
# Disc length: 2784 seconds
#
# Revision: 0
# Processed by: cddbd v1.5.2PL0 Copyright (c) Steve Scherf et al.
# Submitted via: CDex 1.51
#
DISCID=7a0ade0a
DTITLE=Leah Randazzo - At the Root
DYEAR=2006
DGENRE=Jazz
TTITLE0=My Weapon
TTITLE1=All I Need in You
TTITLE2=Passes Me By
TTITLE3=Higher
TTITLE4=Turns to Grey
TTITLE5=The Sweetness
TTITLE6=Photograph
TTITLE7=Ain't it Funny
TTITLE8=Waiting for Alex
TTITLE9=Morning Song
EXTD=YEAR: 2006
EXTT0=
EXTT1=
EXTT2=
EXTT3=
EXTT4=
EXTT5=
EXTT6=
EXTT7=
EXTT8=
EXTT9=
PLAYORDER=
